<svg viewBox="0 0 1639 1864" preserveAspectRatio="xMidYMid slice" class="size-full" fill="none" xmlns="http://www.w3.org/2000/svg"> <mask id="mask0_7005_13456" style="mask-type:alpha" maskUnits="userSpaceOnUse" x="61" y="0" width="1302" height="1762"> <path d="M1361.26 1.88165L62.9892 688.271L989.6 1759.63L1361.26 1.88165Z" fill="#D9D9D9" stroke="#ADADAD" stroke-width="2"></path> </mask> <g mask="url(#mask0_7005_13456)"> <path d="M1354.07 11.248L1612.81 1652.39" stroke="#E9E4DA" stroke-width="2"></path> <path d="M1270.39 24.4414L1529.12 1665.58" stroke="#E9E4DA" stroke-width="2"></path> <path d="M1184.38 38.0029L1443.12 1679.14" stroke="#E9E4DA" stroke-width="2"></path> <path d="M1100.69 51.1963L1359.43 1692.34" stroke="#E9E4DA" stroke-width="2"></path> <path d="M1014.69 64.7539L1273.42 1705.9" stroke="#E9E4DA" stroke-width="2"></path> <path d="M931.002 77.9473L1189.74 1719.09" stroke="#E9E4DA" stroke-width="2"></path> <path d="M847.317 91.1406L1106.05 1732.28" stroke="#E9E4DA" stroke-width="2"></path> <path d="M761.308 104.702L1020.04 1745.84" stroke="#E9E4DA" stroke-width="2"></path> <path d="M677.625 117.893L936.361 1759.03" stroke="#E9E4DA" stroke-width="2"></path> <path d="M593.942 131.088L852.679 1772.23" stroke="#E9E4DA" stroke-width="2"></path> <path d="M507.933 144.649L766.669 1785.79" stroke="#E9E4DA" stroke-width="2"></path> <path d="M424.248 157.84L682.984 1798.98" stroke="#E9E4DA" stroke-width="2"></path> <path d="M338.238 171.4L596.974 1812.54" stroke="#E9E4DA" stroke-width="2"></path> <path d="M254.556 184.594L513.292 1825.74" stroke="#E9E4DA" stroke-width="2"></path> <path d="M170.871 197.787L429.607 1838.93" stroke="#E9E4DA" stroke-width="2"></path> <path d="M84.8613 211.349L343.598 1852.49" stroke="#E9E4DA" stroke-width="2"></path> <path d="M1.17871 224.541L259.915 1865.68" stroke="#E9E4DA" stroke-width="2"></path> <path d="M1591.41 35.7705L-47.4096 294.14" stroke="#E9E4DA" stroke-width="2"></path> <path d="M1604.6 119.455L-34.2134 377.825" stroke="#E9E4DA" stroke-width="2"></path> <path d="M1617.8 203.143L-21.02 461.512" stroke="#E9E4DA" stroke-width="2"></path> <path d="M1630.99 286.825L-7.82663 545.195" stroke="#E9E4DA" stroke-width="2"></path> <path d="M1644.18 370.508L5.36673 628.877" stroke="#E9E4DA" stroke-width="2"></path> <path d="M1657.38 454.192L18.5591 712.562" stroke="#E9E4DA" stroke-width="2"></path> <path d="M1670.57 537.878L31.7525 796.248" stroke="#E9E4DA" stroke-width="2"></path> <path d="M1683.76 621.562L44.9458 879.932" stroke="#E9E4DA" stroke-width="2"></path> <path d="M1696.96 705.248L58.1392 963.618" stroke="#E9E4DA" stroke-width="2"></path> <path d="M1710.15 788.931L71.3325 1047.3" stroke="#E9E4DA" stroke-width="2"></path> <path d="M1723.34 872.615L84.5259 1130.98" stroke="#E9E4DA" stroke-width="2"></path> <path d="M1736.54 956.301L97.7193 1214.67" stroke="#E9E4DA" stroke-width="2"></path> <path d="M1749.73 1039.99L110.913 1298.35" stroke="#E9E4DA" stroke-width="2"></path> <path d="M1762.92 1123.67L124.106 1382.04" stroke="#E9E4DA" stroke-width="2"></path> <path d="M1776.12 1207.35L137.299 1465.72" stroke="#E9E4DA" stroke-width="2"></path> <path d="M1789.31 1291.04L150.492 1549.4" stroke="#E9E4DA" stroke-width="2"></path> <path d="M1802.5 1374.72L163.685 1633.09" stroke="#E9E4DA" stroke-width="2"></path> <path d="M1815.7 1458.41L176.878 1716.77" stroke="#E9E4DA" stroke-width="2"></path> <path d="M1828.89 1542.09L190.072 1800.46" stroke="#E9E4DA" stroke-width="2"></path> <path d="M1362.51 0.169441L62.1162 687.538L990.174 1760.3L1362.51 0.169441Z" stroke="#E9E4DA" stroke-width="2"></path> </g> </svg>